<?xml version="1.0" encoding="UTF-8"?>
<svg width="800" height="400" xmlns="http://www.w3.org/2000/svg">
    <style>
        .title { font: bold 16px sans-serif; text-anchor: middle; }
        .label { font: 12px sans-serif; text-anchor: middle; }
        .bar { fill: #3498db; }
        .bar:hover { fill: #2980b9; }
    </style>
    
    <!-- 标题 -->
    <text x="400.0" y="30" class="title">题目长度分布</text>
    
    <!-- 条形图 -->

    <rect x="65.0" y="266.2244897959184" width="87.14285714285714" height="73.77551020408163" class="bar"/>
    <text x="108.57142857142857" y="355" class="label"><500</text>
    <text x="108.57142857142857" y="261.2244897959184" class="label">241</text>

    <rect x="162.14285714285714" y="100.0" width="87.14285714285714" height="240.0" class="bar"/>
    <text x="205.71428571428572" y="355" class="label">500-1K</text>
    <text x="205.71428571428572" y="95.0" class="label">784</text>

    <rect x="259.2857142857143" y="259.18367346938777" width="87.14285714285714" height="80.81632653061224" class="bar"/>
    <text x="302.85714285714283" y="355" class="label">1K-1.5K</text>
    <text x="302.85714285714283" y="254.18367346938777" class="label">264</text>

    <rect x="356.42857142857144" y="319.48979591836735" width="87.14285714285714" height="20.51020408163265" class="bar"/>
    <text x="400.0" y="355" class="label">1.5K-2K</text>
    <text x="400.0" y="314.48979591836735" class="label">67</text>

    <rect x="453.57142857142856" y="330.51020408163265" width="87.14285714285714" height="9.489795918367347" class="bar"/>
    <text x="497.1428571428571" y="355" class="label">2K-3K</text>
    <text x="497.1428571428571" y="325.51020408163265" class="label">31</text>

    <rect x="550.7142857142857" y="336.9387755102041" width="87.14285714285714" height="3.0612244897959187" class="bar"/>
    <text x="594.2857142857142" y="355" class="label">3K-5K</text>
    <text x="594.2857142857142" y="331.9387755102041" class="label">10</text>

    <rect x="647.8571428571429" y="338.7755102040816" width="87.14285714285714" height="1.2244897959183672" class="bar"/>
    <text x="691.4285714285714" y="355" class="label">>5K</text>
    <text x="691.4285714285714" y="333.7755102040816" class="label">4</text>
</svg>