<?xml version="1.0" encoding="UTF-8"?>
<svg width="800" height="400" xmlns="http://www.w3.org/2000/svg">
    <style>
        .title { font: bold 16px sans-serif; text-anchor: middle; }
        .label { font: 12px sans-serif; text-anchor: middle; }
        .bar { fill: #3498db; }
        .bar:hover { fill: #2980b9; }
    </style>
    
    <!-- 标题 -->
    <text x="400.0" y="30" class="title">题目标签分布 (Top 10)</text>
    
    <!-- 条形图 -->

    <rect x="65.0" y="100.0" width="75.0" height="240.0" class="bar"/>
    <text x="102.5" y="355" class="label">字符串</text>
    <text x="102.5" y="95.0" class="label">138</text>

    <rect x="150.0" y="242.6086956521739" width="75.0" height="97.3913043478261" class="bar"/>
    <text x="187.5" y="355" class="label">数学</text>
    <text x="187.5" y="237.6086956521739" class="label">56</text>

    <rect x="235.0" y="263.47826086956525" width="75.0" height="76.52173913043478" class="bar"/>
    <text x="272.5" y="355" class="label">排序</text>
    <text x="272.5" y="258.47826086956525" class="label">44</text>

    <rect x="320.0" y="298.2608695652174" width="75.0" height="41.73913043478261" class="bar"/>
    <text x="357.5" y="355" class="label">图论</text>
    <text x="357.5" y="293.2608695652174" class="label">24</text>

    <rect x="405.0" y="310.4347826086956" width="75.0" height="29.565217391304348" class="bar"/>
    <text x="442.5" y="355" class="label">模拟</text>
    <text x="442.5" y="305.4347826086956" class="label">17</text>

    <rect x="490.0" y="324.3478260869565" width="75.0" height="15.652173913043478" class="bar"/>
    <text x="527.5" y="355" class="label">搜索</text>
    <text x="527.5" y="319.3478260869565" class="label">9</text>

    <rect x="575.0" y="338.2608695652174" width="75.0" height="1.7391304347826086" class="bar"/>
    <text x="612.5" y="355" class="label">动态规划</text>
    <text x="612.5" y="333.2608695652174" class="label">1</text>

    <rect x="660.0" y="338.2608695652174" width="75.0" height="1.7391304347826086" class="bar"/>
    <text x="697.5" y="355" class="label">贪心</text>
    <text x="697.5" y="333.2608695652174" class="label">1</text>
</svg>